<svg width="24" height="25" viewBox="0 0 24 25" fill="none" xmlns="http://www.w3.org/2000/svg">
<mask id="mask0_98_12" style="mask-type:alpha" maskUnits="userSpaceOnUse" x="0" y="0" width="24" height="25">
<rect y="0.9375" width="24" height="24" fill="#D9D9D9"/>
</mask>
<g mask="url(#mask0_98_12)">
<path d="M2 22.9375V4.9375C2 4.3875 2.19583 3.91667 2.5875 3.525C2.97917 3.13333 3.45 2.9375 4 2.9375H20C20.55 2.9375 21.0208 3.13333 21.4125 3.525C21.8042 3.91667 22 4.3875 22 4.9375V16.9375C22 17.4875 21.8042 17.9583 21.4125 18.35C21.0208 18.7417 20.55 18.9375 20 18.9375H6L2 22.9375ZM5.15 16.9375H20V4.9375H4V18.0625L5.15 16.9375Z" fill="white"/>
</g>
</svg>
