<svg width="24" height="25" viewBox="0 0 24 25" fill="none" xmlns="http://www.w3.org/2000/svg">
<mask id="mask0_98_18" style="mask-type:alpha" maskUnits="userSpaceOnUse" x="0" y="0" width="24" height="25">
<rect y="0.9375" width="24" height="24" fill="#D9D9D9"/>
</mask>
<g mask="url(#mask0_98_18)">
<path d="M6 23.9375C5.45 23.9375 4.97917 23.7417 4.5875 23.35C4.19583 22.9583 4 22.4875 4 21.9375V10.9375C4 10.3875 4.19583 9.91667 4.5875 9.525C4.97917 9.13333 5.45 8.9375 6 8.9375H9V10.9375H6V21.9375H18V10.9375H15V8.9375H18C18.55 8.9375 19.0208 9.13333 19.4125 9.525C19.8042 9.91667 20 10.3875 20 10.9375V21.9375C20 22.4875 19.8042 22.9583 19.4125 23.35C19.0208 23.7417 18.55 23.9375 18 23.9375H6ZM11 16.9375V5.7625L9.4 7.3625L8 5.9375L12 1.9375L16 5.9375L14.6 7.3625L13 5.7625V16.9375H11Z" fill="white"/>
</g>
</svg>
