<svg width="24" height="25" viewBox="0 0 24 25" fill="none" xmlns="http://www.w3.org/2000/svg">
<mask id="mask0_104_6499" style="mask-type:alpha" maskUnits="userSpaceOnUse" x="0" y="0" width="24" height="25">
<rect y="0.9375" width="24" height="24" fill="#D9D9D9"/>
</mask>
<g mask="url(#mask0_104_6499)">
<path d="M18 21.9375H7V8.9375L14 1.9375L15.25 3.1875C15.3667 3.30417 15.4625 3.4625 15.5375 3.6625C15.6125 3.8625 15.65 4.05417 15.65 4.2375V4.5875L14.55 8.9375H21C21.5333 8.9375 22 9.1375 22.4 9.5375C22.8 9.9375 23 10.4042 23 10.9375V12.9375C23 13.0542 22.9833 13.1792 22.95 13.3125C22.9167 13.4458 22.8833 13.5708 22.85 13.6875L19.85 20.7375C19.7 21.0708 19.45 21.3542 19.1 21.5875C18.75 21.8208 18.3833 21.9375 18 21.9375ZM9 19.9375H18L21 12.9375V10.9375H12L13.35 5.4375L9 9.7875V19.9375ZM7 8.9375V10.9375H4V19.9375H7V21.9375H2V8.9375H7Z" fill="white"/>
</g>
</svg>
