<svg width="92" height="18" viewBox="0 0 92 18" fill="none" xmlns="http://www.w3.org/2000/svg">
<path d="M7.656 13.52H3.744L3.192 17H0.288L2.904 0.199999H8.592L11.208 17H8.208L7.656 13.52ZM7.32 11.24L5.712 0.896L4.08 11.24H7.32ZM14.0402 8.696C14.0402 9.576 14.1762 10.384 14.4482 11.12C14.7202 11.856 15.1042 12.488 15.6002 13.016C16.0962 13.528 16.6962 13.928 17.4002 14.216C18.1042 14.504 18.8882 14.648 19.7522 14.648C21.0322 14.648 22.1442 14.352 23.0882 13.76C24.0482 13.168 24.6802 12.304 24.9842 11.168H27.7922C27.5682 12.096 27.2082 12.936 26.7122 13.688C26.2322 14.424 25.6402 15.056 24.9362 15.584C24.2482 16.096 23.4642 16.496 22.5842 16.784C21.7042 17.056 20.7602 17.192 19.7522 17.192C18.5202 17.192 17.4002 16.992 16.3922 16.592C15.4002 16.176 14.5442 15.6 13.8242 14.864C13.1202 14.112 12.5682 13.216 12.1682 12.176C11.7842 11.12 11.5922 9.96 11.5922 8.696C11.5922 7.416 11.7842 6.256 12.1682 5.216C12.5682 4.176 13.1202 3.288 13.8242 2.552C14.5442 1.8 15.4002 1.224 16.3922 0.823999C17.4002 0.407999 18.5202 0.199999 19.7522 0.199999C20.9042 0.199999 21.9362 0.383999 22.8482 0.751999C23.7602 1.12 24.5282 1.64 25.1522 2.312C25.7922 2.984 26.2802 3.784 26.6162 4.712C26.9682 5.64 27.1442 6.664 27.1442 7.784H24.6722C24.5122 4.424 22.8722 2.744 19.7522 2.744C18.8882 2.744 18.1042 2.888 17.4002 3.176C16.6962 3.464 16.0962 3.872 15.6002 4.4C15.1042 4.912 14.7202 5.536 14.4482 6.272C14.1762 6.992 14.0402 7.8 14.0402 8.696ZM27.0553 0.223999H38.0953V2.384H34.0633L34.0873 17H31.1113V2.384H27.0553V0.223999ZM42.5387 10.4C42.5387 11.088 42.6427 11.688 42.8507 12.2C43.0587 12.712 43.3307 13.144 43.6667 13.496C44.0187 13.832 44.4107 14.088 44.8427 14.264C45.2747 14.44 45.7147 14.528 46.1627 14.528C46.6107 14.528 47.0427 14.448 47.4587 14.288C47.8907 14.112 48.2667 13.856 48.5867 13.52C48.9227 13.168 49.1867 12.736 49.3787 12.224C49.5867 11.696 49.6907 11.088 49.6907 10.4V0.248H52.6187V10.688C52.6187 11.744 52.4267 12.672 52.0427 13.472C51.6747 14.256 51.1867 14.912 50.5787 15.44C49.9707 15.968 49.2747 16.368 48.4907 16.64C47.7067 16.896 46.9067 17.024 46.0907 17.024C45.2747 17.024 44.4747 16.896 43.6907 16.64C42.9227 16.368 42.2347 15.968 41.6267 15.44C41.0187 14.912 40.5307 14.256 40.1627 13.472C39.7947 12.672 39.6107 11.744 39.6107 10.688V0.248H42.5387V10.4ZM61.281 13.52H57.369L56.817 17H53.913L56.529 0.199999H62.217L64.833 17H61.833L61.281 13.52ZM60.945 11.24L59.337 0.896L57.705 11.24H60.945ZM73.7946 17H65.8266V0.199999H68.9226L68.7786 14.72H73.8186L73.7946 17ZM82.8883 17H74.9203V0.199999H78.0163L77.8723 14.72H82.9123L82.8883 17ZM89.0798 11.288H87.7118V17H84.7598V11.288H83.3918L80.6558 0.199999H83.6798L86.2478 10.664L88.8398 0.199999H91.8638L89.0798 11.288Z" fill="white"/>
</svg>
