<svg width="169" height="92" viewBox="0 0 169 92" fill="none" xmlns="http://www.w3.org/2000/svg">
<path d="M12.222 18.25C13.062 18.25 13.972 18.362 14.952 18.586C15.932 18.782 16.828 19.174 17.64 19.762C18.48 20.322 19.18 21.092 19.74 22.072C20.3 23.024 20.58 24.256 20.58 25.768C20.58 27.196 20.314 28.442 19.782 29.506C19.25 30.542 18.522 31.396 17.598 32.068C16.702 32.74 15.652 33.23 14.448 33.538C13.272 33.846 12.012 34 10.668 34H1.428V4.6H9.912C11.256 4.516 12.53 4.586 13.734 4.81C14.938 5.034 15.988 5.44 16.884 6.028C17.808 6.588 18.536 7.33 19.068 8.254C19.628 9.178 19.908 10.312 19.908 11.656C19.908 12.944 19.656 14.008 19.152 14.848C18.676 15.688 18.06 16.36 17.304 16.864C16.576 17.34 15.75 17.676 14.826 17.872C13.93 18.068 13.062 18.166 12.222 18.166V18.25ZM9.912 16.36C11.312 16.36 12.46 16.024 13.356 15.352C14.28 14.68 14.742 13.602 14.742 12.118C14.742 10.718 14.28 9.738 13.356 9.178C12.46 8.618 11.312 8.352 9.912 8.38H6.594V16.36H9.912ZM10.71 30.22C12.194 30.248 13.342 29.814 14.154 28.918C14.994 28.022 15.414 26.762 15.414 25.138C15.414 24.326 15.26 23.612 14.952 22.996C14.644 22.38 14.224 21.862 13.692 21.442C13.188 20.994 12.6 20.672 11.928 20.476C11.284 20.252 10.612 20.14 9.912 20.14H6.594V30.22H10.71ZM28.3822 22.45C28.3822 23.654 28.5642 24.704 28.9282 25.6C29.2922 26.496 29.7682 27.252 30.3562 27.868C30.9722 28.456 31.6582 28.904 32.4142 29.212C33.1702 29.52 33.9402 29.674 34.7242 29.674C35.5082 29.674 36.2642 29.534 36.9922 29.254C37.7482 28.946 38.4062 28.498 38.9662 27.91C39.5542 27.294 40.0162 26.538 40.3522 25.642C40.7162 24.718 40.8982 23.654 40.8982 22.45V4.684H46.0222V22.954C46.0222 24.802 45.6862 26.426 45.0142 27.826C44.3702 29.198 43.5162 30.346 42.4522 31.27C41.3882 32.194 40.1702 32.894 38.7982 33.37C37.4262 33.818 36.0262 34.042 34.5982 34.042C33.1702 34.042 31.7702 33.818 30.3982 33.37C29.0542 32.894 27.8502 32.194 26.7862 31.27C25.7222 30.346 24.8682 29.198 24.2242 27.826C23.5802 26.426 23.2582 24.802 23.2582 22.954V4.684H28.3822V22.45ZM48.4132 4.642H67.7332V8.422H60.6772L60.7192 34H55.5112V8.422H48.4132V4.642Z" fill="white"/>
<path d="M13.398 73.91H6.552L5.586 80H0.504L5.082 50.6H15.036L19.614 80H14.364L13.398 73.91ZM12.81 69.92L9.996 51.818L7.14 69.92H12.81ZM24.5703 65.468C24.5703 67.008 24.8083 68.422 25.2843 69.71C25.7603 70.998 26.4323 72.104 27.3003 73.028C28.1683 73.924 29.2183 74.624 30.4503 75.128C31.6823 75.632 33.0543 75.884 34.5663 75.884C36.8063 75.884 38.7523 75.366 40.4043 74.33C42.0843 73.294 43.1903 71.782 43.7223 69.794H48.6363C48.2443 71.418 47.6143 72.888 46.7463 74.204C45.9063 75.492 44.8703 76.598 43.6383 77.522C42.4343 78.418 41.0623 79.118 39.5223 79.622C37.9823 80.098 36.3303 80.336 34.5663 80.336C32.4103 80.336 30.4503 79.986 28.6863 79.286C26.9503 78.558 25.4523 77.55 24.1923 76.262C22.9603 74.946 21.9943 73.378 21.2943 71.558C20.6223 69.71 20.2863 67.68 20.2863 65.468C20.2863 63.228 20.6223 61.198 21.2943 59.378C21.9943 57.558 22.9603 56.004 24.1923 54.716C25.4523 53.4 26.9503 52.392 28.6863 51.692C30.4503 50.964 32.4103 50.6 34.5663 50.6C36.5823 50.6 38.3883 50.922 39.9843 51.566C41.5803 52.21 42.9243 53.12 44.0163 54.296C45.1363 55.472 45.9903 56.872 46.5783 58.496C47.1943 60.12 47.5023 61.912 47.5023 63.872H43.1763C42.8963 57.992 40.0263 55.052 34.5663 55.052C33.0543 55.052 31.6823 55.304 30.4503 55.808C29.2183 56.312 28.1683 57.026 27.3003 57.95C26.4323 58.846 25.7603 59.938 25.2843 61.226C24.8083 62.486 24.5703 63.9 24.5703 65.468ZM47.3468 50.642H66.6668V54.422H59.6108L59.6528 80H54.4448V54.422H47.3468V50.642ZM74.4427 68.45C74.4427 69.654 74.6247 70.704 74.9887 71.6C75.3527 72.496 75.8287 73.252 76.4167 73.868C77.0327 74.456 77.7187 74.904 78.4747 75.212C79.2307 75.52 80.0007 75.674 80.7847 75.674C81.5687 75.674 82.3247 75.534 83.0527 75.254C83.8087 74.946 84.4667 74.498 85.0267 73.91C85.6147 73.294 86.0767 72.538 86.4127 71.642C86.7767 70.718 86.9587 69.654 86.9587 68.45V50.684H92.0827V68.954C92.0827 70.802 91.7467 72.426 91.0747 73.826C90.4307 75.198 89.5767 76.346 88.5127 77.27C87.4487 78.194 86.2307 78.894 84.8587 79.37C83.4867 79.818 82.0867 80.042 80.6587 80.042C79.2307 80.042 77.8307 79.818 76.4587 79.37C75.1147 78.894 73.9107 78.194 72.8467 77.27C71.7827 76.346 70.9287 75.198 70.2847 73.826C69.6407 72.426 69.3187 70.802 69.3187 68.954V50.684H74.4427V68.45ZM107.242 73.91H100.396L99.4298 80H94.3478L98.9258 50.6H108.88L113.458 80H108.208L107.242 73.91ZM106.654 69.92L103.84 51.818L100.984 69.92H106.654ZM129.14 80H115.196V50.6H120.614L120.362 76.01H129.182L129.14 80ZM145.055 80H131.111V50.6H136.529L136.277 76.01H145.097L145.055 80ZM155.89 70.004H153.496V80H148.33V70.004H145.936L141.148 50.6H146.44L150.934 68.912L155.47 50.6H160.762L155.89 70.004ZM162.404 74.876H167.57V80L165.218 84.242H163.034L165.47 80H162.404V74.876Z" fill="white"/>
</svg>
